<svg width="138" height="138" viewBox="0 0 138 138" fill="none" xmlns="http://www.w3.org/2000/svg">
<circle cx="69" cy="69" r="69" fill="#E5243D"/>
<path d="M93.9269 97.4903L93.9279 86.8074C93.9284 80.9065 89.1449 76.1225 83.244 76.1225H54.7559C48.8558 76.1225 44.0727 80.9051 44.072 86.8052L44.0708 97.4903M79.6837 51.1935C79.6837 57.094 74.9004 61.8774 68.9998 61.8774C63.0993 61.8774 58.316 57.094 58.316 51.1935C58.316 45.293 63.0993 40.5096 68.9998 40.5096C74.9004 40.5096 79.6837 45.293 79.6837 51.1935Z" stroke="white" stroke-width="5.93548" stroke-linecap="round" stroke-linejoin="round"/>
<circle cx="117.3" cy="117.3" r="20.7" fill="white"/>
<path d="M110.055 120.922L114.281 124.545M109.451 120.922L121.357 108.601C122.639 107.32 124.717 107.32 125.999 108.601C127.281 109.883 127.281 111.962 125.999 113.243L113.678 125.149L107.64 126.96L109.451 120.922Z" stroke="black" stroke-width="2.0125" stroke-linecap="round" stroke-linejoin="round"/>
</svg>
