<svg width="15" height="15" viewBox="0 0 15 15" fill="none" xmlns="http://www.w3.org/2000/svg">
<path d="M7.49987 3.59766C5.38294 3.59766 3.62891 5.32145 3.62891 7.46862C3.62891 9.6158 5.3527 11.3396 7.49987 11.3396C9.64705 11.3396 11.3708 9.58556 11.3708 7.46862C11.3708 5.35169 9.61681 3.59766 7.49987 3.59766ZM7.49987 9.94846C6.13899 9.94846 5.02004 8.82951 5.02004 7.46862C5.02004 6.10774 6.13899 4.98878 7.49987 4.98878C8.86076 4.98878 9.97971 6.10774 9.97971 7.46862C9.97971 8.82951 8.86076 9.94846 7.49987 9.94846Z" fill="white"/>
<path d="M11.5225 4.38294C12.0069 4.38294 12.3995 3.99028 12.3995 3.50592C12.3995 3.02156 12.0069 2.62891 11.5225 2.62891C11.0382 2.62891 10.6455 3.02156 10.6455 3.50592C10.6455 3.99028 11.0382 4.38294 11.5225 4.38294Z" fill="white"/>
<path d="M13.7903 1.23992C13.004 0.423387 11.8851 0 10.6149 0H4.38508C1.75403 0 0 1.75403 0 4.38508V10.5847C0 11.8851 0.423387 13.004 1.27016 13.8206C2.08669 14.6069 3.1754 15 4.41532 15H10.5847C11.8851 15 12.9738 14.5766 13.7601 13.8206C14.5766 13.0343 15 11.9153 15 10.6149V4.38508C15 3.11492 14.5766 2.02621 13.7903 1.23992ZM13.6694 10.6149C13.6694 11.5524 13.3367 12.3085 12.7923 12.8226C12.248 13.3367 11.4919 13.6089 10.5847 13.6089H4.41532C3.50806 13.6089 2.75202 13.3367 2.20766 12.8226C1.66331 12.2782 1.39113 11.5222 1.39113 10.5847V4.38508C1.39113 3.47782 1.66331 2.72177 2.20766 2.17742C2.72177 1.66331 3.50806 1.39113 4.41532 1.39113H10.6452C11.5524 1.39113 12.3085 1.66331 12.8528 2.20766C13.3669 2.75202 13.6694 3.50806 13.6694 4.38508V10.6149Z" fill="white"/>
</svg>
