<svg width="118" height="37" viewBox="0 0 118 37" fill="none" xmlns="http://www.w3.org/2000/svg">
<path d="M0.55568 36V0.897467H9.82993C11.7712 0.897467 13.3069 1.3296 14.4371 2.19387C15.5806 3.05813 16.3984 4.28805 16.8903 5.88362C17.3823 7.47919 17.6283 9.38058 17.6283 11.5878C17.6283 13.7152 17.4222 15.5701 17.01 17.1523C16.5978 18.7213 15.8599 19.9379 14.7961 20.8022C13.7457 21.6665 12.2499 22.0986 10.3086 22.0986H7.45652V36H0.55568ZM7.45652 15.7961H7.85541C9.15846 15.7961 9.95625 15.4304 10.2488 14.6991C10.5413 13.9678 10.6875 12.8908 10.6875 11.4681C10.6875 10.1385 10.5413 9.11465 10.2488 8.39664C9.96954 7.66534 9.29807 7.29969 8.23436 7.29969H7.45652V15.7961ZM18.3064 36L21.697 0.897467H33.6039L36.9347 36H30.2931L29.7945 30.3357H25.5662L25.1275 36H18.3064ZM26.0649 24.7313H29.256L27.7203 6.88085H27.4011L26.0649 24.7313ZM41.5818 36V7.63875H37.4133V0.897467H52.7707V7.63875H48.6023V36H41.5818ZM63.102 36.3191C60.2965 36.3191 58.1491 35.4748 56.6599 33.7861C55.184 32.0842 54.446 29.631 54.446 26.4266V9.75288C54.446 6.74789 55.1774 4.46755 56.64 2.91187C58.1159 1.35619 60.2699 0.578353 63.102 0.578353C65.9342 0.578353 68.0815 1.35619 69.5441 2.91187C71.02 4.46755 71.758 6.74789 71.758 9.75288V26.4266C71.758 29.631 71.0134 32.0842 69.5242 33.7861C68.0483 35.4748 65.9076 36.3191 63.102 36.3191ZM63.1618 29.8571C64.2256 29.8571 64.7574 28.8266 64.7574 26.7656V9.63321C64.7574 7.90468 64.2389 7.04041 63.2017 7.04041C62.0317 7.04041 61.4466 7.92462 61.4466 9.69304V26.8055C61.4466 27.8958 61.5796 28.6803 61.8455 29.159C62.1114 29.6244 62.5502 29.8571 63.1618 29.8571Z" fill="#E5243D"/>
<path d="M74.1314 35.9801V30.0366H81.2716V35.9801H74.1314Z" fill="#DE011D"/>
<path d="M86.9358 36V7.63875H82.7674V0.897467H98.1248V7.63875H93.9563V36H86.9358ZM103.31 36L98.9824 0.877522H105.664L108.237 24.7712L110.53 0.877522H117.212L112.884 36H103.31Z" fill="white"/>
</svg>
