<svg width="20" height="20" viewBox="0 0 20 20" fill="none" xmlns="http://www.w3.org/2000/svg">
<path d="M15.8915 16.0167C15.8738 16.0167 15.8583 16.0134 15.8449 16.0081C15.8321 16.0029 15.818 15.9945 15.8034 15.9798C15.7818 15.9583 15.7686 15.9275 15.7686 15.8917C15.7686 15.8558 15.7818 15.8251 15.8034 15.8036C19.0066 12.6003 19.0074 7.392 15.8032 4.19632C15.7818 4.1748 15.7686 4.14411 15.7686 4.10833C15.7686 4.07248 15.7818 4.04174 15.8034 4.02022C15.8249 3.99869 15.8556 3.98541 15.8915 3.98541C15.9273 3.98541 15.9581 3.99869 15.9796 4.02022C19.276 7.31662 19.276 12.6834 15.9796 15.9798C15.9649 15.9945 15.9509 16.0029 15.938 16.0081C15.9247 16.0134 15.9092 16.0167 15.8915 16.0167Z" fill="white" stroke="white"/>
<path d="M4.10827 16.5167C3.94993 16.5167 3.7916 16.4583 3.6666 16.3333C0.174935 12.8417 0.174935 7.15833 3.6666 3.66666C3.90827 3.425 4.30827 3.425 4.54993 3.66666C4.7916 3.90833 4.7916 4.30833 4.54993 4.55C1.5416 7.55833 1.5416 12.45 4.54993 15.45C4.7916 15.6917 4.7916 16.0917 4.54993 16.3333C4.42493 16.4583 4.2666 16.5167 4.10827 16.5167Z" fill="white"/>
<path d="M9.99996 18.925C8.9583 18.9167 7.96663 18.75 7.04163 18.425C6.71663 18.3083 6.54163 17.95 6.6583 17.625C6.77496 17.3 7.12496 17.125 7.4583 17.2417C8.2583 17.5167 9.1083 17.6667 10.0083 17.6667C10.9 17.6667 11.7583 17.5167 12.55 17.2417C12.875 17.1333 13.2333 17.3 13.35 17.625C13.4666 17.95 13.2916 18.3083 12.9666 18.425C12.0333 18.75 11.0416 18.925 9.99996 18.925Z" fill="white"/>
<path d="M12.75 2.78335C12.6833 2.78335 12.6083 2.77501 12.5416 2.75001C11.75 2.46668 10.8916 2.32501 9.99996 2.32501C9.1083 2.32501 8.2583 2.47501 7.4583 2.75001C7.12496 2.85835 6.77496 2.69168 6.6583 2.36668C6.54163 2.04168 6.71663 1.68335 7.04163 1.56668C7.97496 1.24168 8.96663 1.07501 9.99996 1.07501C11.0333 1.07501 12.0333 1.24168 12.9583 1.56668C13.2833 1.68335 13.4583 2.04168 13.3416 2.36668C13.25 2.62501 13.0083 2.78335 12.75 2.78335Z" fill="white"/>
<path d="M7.2832 10V8.60834C7.2832 6.87501 8.5082 6.16667 10.0082 7.03334L11.2165 7.73334L12.4249 8.43334C13.9249 9.30001 13.9249 10.7167 12.4249 11.5833L11.2165 12.2833L10.0082 12.9833C8.5082 13.85 7.2832 13.1417 7.2832 11.4083V10Z" fill="white"/>
</svg>
