<svg width="20" height="20" viewBox="0 0 20 20" fill="none" xmlns="http://www.w3.org/2000/svg">
<path d="M14.3367 8.43688L14.3368 8.43693L14.3427 8.43083C14.7684 7.99039 14.7769 7.28661 14.3367 6.84644C13.8998 6.40951 13.1832 6.40951 12.7463 6.84644L8.8165 10.7762L7.25339 9.2131C6.81646 8.77617 6.09988 8.77617 5.66295 9.2131C5.22602 9.65003 5.22602 10.3666 5.66295 10.8035L6.0165 10.45L5.66295 10.8035L8.02128 13.1619C8.23065 13.3712 8.51572 13.4917 8.8165 13.4917C9.11729 13.4917 9.40236 13.3712 9.61172 13.1619L14.3367 8.43688ZM2.1665 9.99999C2.1665 5.68447 5.68431 2.16666 9.99984 2.16666C14.3154 2.16666 17.8332 5.68447 17.8332 9.99999C17.8332 14.3155 14.3154 17.8333 9.99984 17.8333C5.68431 17.8333 2.1665 14.3155 2.1665 9.99999Z" fill="#F5F5F5" stroke="#F5F5F5"/>
</svg>
