<svg width="13" height="11" viewBox="0 0 13 11" fill="none" xmlns="http://www.w3.org/2000/svg">
<path fill-rule="evenodd" clip-rule="evenodd" d="M6.31322 2.92617L6.3414 3.40195L5.87174 3.34369C4.16217 3.12037 2.66865 2.363 1.40057 1.09102L0.780614 0.459879L0.620929 0.92595C0.282773 1.9649 0.498817 3.06211 1.20331 3.80006C1.57904 4.20787 1.4945 4.26613 0.846366 4.02338C0.620929 3.9457 0.423671 3.88744 0.404885 3.91657C0.339132 3.98454 0.56457 4.86814 0.743041 5.21769C0.987264 5.70318 1.4851 6.17896 2.02991 6.46055L2.49018 6.68387L1.94537 6.69358C1.41935 6.69358 1.40057 6.70329 1.45693 6.9072C1.64479 7.53834 2.38685 8.20831 3.21346 8.49961L3.79584 8.70351L3.2886 9.01423C2.53715 9.46088 1.65418 9.71333 0.77122 9.73275C0.348526 9.74246 0.000976562 9.7813 0.000976562 9.81043C0.000976562 9.90753 1.14695 10.4513 1.81387 10.6649C3.81462 11.296 6.19111 11.0242 7.97582 9.94637C9.2439 9.17929 10.512 7.65485 11.1038 6.17896C11.4231 5.39247 11.7425 3.95541 11.7425 3.26602C11.7425 2.81936 11.7707 2.76111 12.2967 2.22707C12.6067 1.91635 12.8979 1.57651 12.9542 1.47941C13.0482 1.29492 13.0388 1.29492 12.5597 1.45999C11.7613 1.75128 11.6486 1.71244 12.0431 1.2755C12.3343 0.964789 12.6818 0.40162 12.6818 0.236553C12.6818 0.207424 12.5409 0.255973 12.3812 0.343361C12.2122 0.440459 11.8364 0.586106 11.5546 0.673494L11.0474 0.838562L10.5871 0.518138C10.3335 0.343361 9.97657 0.149165 9.78871 0.0909061C9.30965 -0.0450313 8.57698 -0.0256116 8.1449 0.129745C6.97074 0.566687 6.22868 1.69303 6.31322 2.92617Z" fill="white"/>
</svg>
